inDegrees=no
num_controls=7
num_derivatives=13
num_iterations=95
num_multipliers=7
num_parameters=0
num_slacks=7
num_states=26
objective=5.265746
objective_accelerations=0.708465
objective_balance=0.033892
objective_effort=0.508785
objective_height=3.972729
objective_ligament=0.041874
solver_duration=1010.013742
status=Solve_Succeeded
success=true
DataType=double
version=3
OpenSimVersion=4.4-2022-07-23-0e9fedc
endheader
time	/jointset/ground_pelvis/pelvis_tilt/value	/jointset/ground_pelvis/pelvis_tx/value	/jointset/ground_pelvis/pelvis_ty/value	/jointset/hip_l/hip_flexion_l/value	/jointset/hip_l/hip_adduction_l/value	/jointset/hip_l/hip_rotation_l/value	/jointset/back/lumbar_extension/value	/jointset/patellofemoral_l/patellar_flexion_l/value	/jointset/knee_l/knee_flexion_l/value	/jointset/knee_l/knee_adduction_l/value	/jointset/knee_l/knee_rotation_l/value	/jointset/ankle_l/ankle_angle_l/value	/jointset/subtalar_l/subtalar_angle_l/value	/jointset/ground_pelvis/pelvis_tilt/speed	/jointset/ground_pelvis/pelvis_tx/speed	/jointset/ground_pelvis/pelvis_ty/speed	/jointset/hip_l/hip_flexion_l/speed	/jointset/hip_l/hip_adduction_l/speed	/jointset/hip_l/hip_rotation_l/speed	/jointset/back/lumbar_extension/speed	/jointset/patellofemoral_l/patellar_flexion_l/speed	/jointset/knee_l/knee_flexion_l/speed	/jointset/knee_l/knee_adduction_l/speed	/jointset/knee_l/knee_rotation_l/speed	/jointset/ankle_l/ankle_angle_l/speed	/jointset/subtalar_l/subtalar_angle_l/speed	/forceset/tau_hip_flexion_l	/forceset/tau_hip_adduction_l	/forceset/tau_hip_rotation_l	/forceset/tau_knee_flexion_l	/forceset/tau_ankle_angle_l	/forceset/tau_subtalar_angle_l	/forceset/tau_lumbar_extension	lambda_cid13_p0	lambda_cid13_p1	lambda_cid13_p2	lambda_cid13_p3	lambda_cid13_p4	lambda_cid13_p5	lambda_cid14_p0	/jointset/ground_pelvis/pelvis_tilt/accel	/jointset/ground_pelvis/pelvis_tx/accel	/jointset/ground_pelvis/pelvis_ty/accel	/jointset/hip_l/hip_flexion_l/accel	/jointset/hip_l/hip_adduction_l/accel	/jointset/hip_l/hip_rotation_l/accel	/jointset/back/lumbar_extension/accel	/jointset/patellofemoral_l/patellar_flexion_l/accel	/jointset/knee_l/knee_flexion_l/accel	/jointset/knee_l/knee_adduction_l/accel	/jointset/knee_l/knee_rotation_l/accel	/jointset/ankle_l/ankle_angle_l/accel	/jointset/subtalar_l/subtalar_angle_l/accel	gamma_cid13_p0	gamma_cid13_p1	gamma_cid13_p2	gamma_cid13_p3	gamma_cid13_p4	gamma_cid13_p5	gamma_cid14_p0
1.5	-0.2913317922275408	-0.05569012168507086	0.6681867281195326	1.453241648073108	-0.2475203187655597	-0.003326091269089957	-0.3946439854519984	1.228606076965237	1.228606076965222	0.03019311033420864	0.1743019278353194	0.2824839057363555	0.07797060666755672	0.1188579312835592	0.06476630964119164	0.8746270053390424	-2.557415993503069	-0.07327939731864878	-0.3940241014853273	0.4532008975132228	-3.027240179195306	-3.027240179195182	-0.5230708099925711	-0.01085117387222226	-0.7449957832359787	-0.3028740980366657	-0.210356501592727	-0.0129861249701389	-0.01003648321218337	-0.3679548395092229	0.147696033371998	0.02721954454958065	0.2223473587902592	8.591669290805461	-10.84615673878287	-1.505579369224807	-15.66534811412479	-629.1079805704468	-72.02574779623943	-0.2699407919966328	1.832281013158418	1.31619766593684	-0.2607826168913725	-3.290460072806801	-0.1931432959615519	-0.8165289854888417	2.85772424198014	-2.917264155745598	-2.91726415574559	-0.5609174912718806	-0.4287578690941405	-1.71422670635207	-0.3037945596625302	-4.130160456979436e-07	5.033034566274808e-06	5.424024758894317e-06	1.096637661661603e-06	2.59007774501124e-07	5.407538358496116e-06	-1.720095966416279e-07
1.51	-0.2900524575607755	-0.05497659402236182	0.6769176269004777	1.427506605956785	-0.2482631552478309	-0.007313998520157413	-0.389968874982443	1.198190991787973	1.198190991787934	0.02493974211760525	0.1741755778135952	0.2749488156834709	0.0749265779231354	0.1369560926735137	0.07794922901858105	0.8713180607046876	-2.58924984641815	-0.07522624992864725	-0.4035634998653856	0.4818289636482839	-3.055370799901545	-3.055370799901339	-0.527511590185436	-0.01449958088716121	-0.7618869971734094	-0.305791943440885	-0.2050362814217324	-0.01289273151127302	-0.009450827240438209	-0.359240543272986	0.1480431160256423	0.02701891481213053	0.2172561763321672	9.206389337877441	-11.06925326206858	-1.238593237405047	-16.09465395128153	-620.8022051481436	-71.28241899388108	-0.7052315917492817	1.79063308797079	1.321072548906536	-0.4010930476908619	-3.07848114788863	-0.1872688541002764	-1.023528677392567	2.866512886809088	-2.700032282320528	-2.700032282308328	-0.371234959054619	-0.3462647446642961	-1.656048640191214	-0.2664156905181668	-3.84278114360286e-07	5.548981538094058e-06	5.586206823854742e-06	1.140295615263741e-06	2.889029530042515e-07	5.44069949925557e-06	-1.254480175740293e-07
1.52	-0.2885937314028796	-0.05413089047082519	0.6856084077028831	1.401463498661886	-0.2490238227783171	-0.01139747643773674	-0.3850072508340323	1.167506786152783	1.167506786152772	0.01964485076413885	0.1740100671961683	0.2672489175106573	0.07185724349272876	0.1547362295057181	0.09120148740670753	0.866603409631022	-2.619029029214428	-0.0768456069618	-0.4131382347706134	0.5105036332849262	-3.08106427077808	-3.081064270777791	-0.5313754374087865	-0.01868329298092297	-0.7779574072209436	-0.3079352352337762	-0.199716061250964	-0.01279933805278497	-0.008865171267112847	-0.3505262470367143	0.1483901986792179	0.02681828507417533	0.2121649938738753	9.836092571166533	-11.30768898742276	-0.9546450690305333	-16.67870202928266	-612.3336898016818	-70.55438470028626	-1.38339894464288	1.768676101608267	1.330065468084384	-0.5419239047535276	-2.879526049046326	-0.1276441805928511	-0.8235962905228477	2.867044942296431	-2.429834189804758	-2.429834189804704	-0.4455308973689727	-0.5358188848586692	-1.55006592837263	-0.1488838373968991	-2.877871475785689e-07	5.853345313969561e-06	5.020548895077951e-06	1.09887381317616e-06	3.505733724979048e-07	5.10733724496896e-06	-2.283959067052698e-08
1.53	-0.2869588040747261	-0.05315242990371146	0.694245055808175	1.375132853967793	-0.2497995249893528	-0.01557536469095474	-0.3797591724358913	1.136578135808546	1.136578135808522	0.01431189494627975	0.1738004843207327	0.2593925605163601	0.06876964880791751	0.1721766947866326	0.1044875305791899	0.8604931938021952	-2.646724915955958	-0.07822804461093691	-0.4224622346691463	0.5390839930590576	-3.104224355961693	-3.104224355961402	-0.5350958796262675	-0.02330019758227005	-0.7931512654852656	-0.3094422987297969	-0.1938455956887556	-0.01323992514194029	-0.00846261035055644	-0.3423596559104112	0.1486270241609561	0.02681343282791809	0.2065637413237123	10.4287801194177	-11.65198482348004	-0.6226128568102535	-17.03538581289562	-603.8656634157995	-70.1123698974194	-2.318608270093466	1.720870340022059	1.327588723654282	-0.6804236466712308	-2.658351229463788	-0.1342486362190298	-0.9898451392572919	2.849323502354946	-2.19292459308435	-2.19292459308417	-0.3164635258475873	-0.4353279955881624	-1.479397855409826	-0.131705791557839	-1.193085806375393e-07	5.932901944154835e-06	3.681560972955378e-06	9.670547706682532e-07	4.460049855439915e-07	4.384543883445909e-06	1.393186120586222e-07
